REM DIRINDEX 1\2,1\3
REM DIRNAME cjc039,folder01,folder02
TITLE ""
FILE "2881-2900.mp3" MP3
  TRACK 01 AUDIO
    TITLE "0:"
    INDEX 01 00:00:00
  TRACK 02 AUDIO
    TITLE "2:cjc039_4761"
    INDEX 01 00:00:25
  TRACK 03 AUDIO
    TITLE "0:"
    INDEX 01 00:01:52
  TRACK 04 AUDIO
    TITLE "3:cjc039_4762"
    INDEX 01 00:02:28
  TRACK 05 AUDIO
    TITLE "0:"
    INDEX 01 00:05:26
  TRACK 06 AUDIO
    TITLE "2:cjc039_4763"
    INDEX 01 00:06:73
  TRACK 07 AUDIO
    TITLE "0:"
    INDEX 01 00:08:44
  TRACK 08 AUDIO
    TITLE "3:cjc039_4764"
    INDEX 01 00:09:20
  TRACK 09 AUDIO
    TITLE "0:"
    INDEX 01 00:14:21
  TRACK 10 AUDIO
    TITLE "2:cjc039_4765"
    INDEX 01 00:15:72
  TRACK 11 AUDIO
    TITLE "0:"
    INDEX 01 00:17:04
  TRACK 12 AUDIO
    TITLE "3:cjc039_4766"
    INDEX 01 00:17:53
  TRACK 13 AUDIO
    TITLE "0:"
    INDEX 01 00:20:22
  TRACK 14 AUDIO
    TITLE "2:cjc039_4767"
    INDEX 01 00:21:68
  TRACK 15 AUDIO
    TITLE "0:"
    INDEX 01 00:23:30
  TRACK 16 AUDIO
    TITLE "3:cjc039_4768"
    INDEX 01 00:24:00
  TRACK 17 AUDIO
    TITLE "0:"
    INDEX 01 00:27:08
  TRACK 18 AUDIO
    TITLE "2:cjc039_4769"
    INDEX 01 00:28:60
  TRACK 19 AUDIO
    TITLE "0:"
    INDEX 01 00:29:66
  TRACK 20 AUDIO
    TITLE "3:cjc039_4770"
    INDEX 01 00:30:46
  TRACK 21 AUDIO
    TITLE "0:"
    INDEX 01 00:33:13
  TRACK 22 AUDIO
    TITLE "2:cjc039_4771"
    INDEX 01 00:34:67
  TRACK 23 AUDIO
    TITLE "0:"
    INDEX 01 00:36:11
  TRACK 24 AUDIO
    TITLE "3:cjc039_4772"
    INDEX 01 00:36:64
  TRACK 25 AUDIO
    TITLE "0:"
    INDEX 01 00:40:13
  TRACK 26 AUDIO
    TITLE "2:cjc039_4773"
    INDEX 01 00:41:65
  TRACK 27 AUDIO
    TITLE "0:"
    INDEX 01 00:42:68
  TRACK 28 AUDIO
    TITLE "3:cjc039_4774"
    INDEX 01 00:43:52
  TRACK 29 AUDIO
    TITLE "0:"
    INDEX 01 00:46:56
  TRACK 30 AUDIO
    TITLE "2:cjc039_4775"
    INDEX 01 00:48:36
  TRACK 31 AUDIO
    TITLE "0:"
    INDEX 01 00:49:69
  TRACK 32 AUDIO
    TITLE "3:cjc039_4776"
    INDEX 01 00:50:46
  TRACK 33 AUDIO
    TITLE "0:"
    INDEX 01 00:53:68
  TRACK 34 AUDIO
    TITLE "2:cjc039_4777"
    INDEX 01 00:55:46
  TRACK 35 AUDIO
    TITLE "0:"
    INDEX 01 00:56:59
  TRACK 36 AUDIO
    TITLE "3:cjc039_4778"
    INDEX 01 00:57:43
  TRACK 37 AUDIO
    TITLE "0:"
    INDEX 01 01:00:29
  TRACK 38 AUDIO
    TITLE "2:cjc039_4779"
    INDEX 01 01:02:05
  TRACK 39 AUDIO
    TITLE "0:"
    INDEX 01 01:03:51
  TRACK 40 AUDIO
    TITLE "3:cjc039_4780"
    INDEX 01 01:04:29
  TRACK 41 AUDIO
    TITLE "0:"
    INDEX 01 01:08:50
  TRACK 42 AUDIO
    TITLE "2:cjc039_4781"
    INDEX 01 01:10:26
  TRACK 43 AUDIO
    TITLE "0:"
    INDEX 01 01:11:45
  TRACK 44 AUDIO
    TITLE "3:cjc039_4782"
    INDEX 01 01:12:21
  TRACK 45 AUDIO
    TITLE "0:"
    INDEX 01 01:15:33
  TRACK 46 AUDIO
    TITLE "2:cjc039_4783"
    INDEX 01 01:17:14
  TRACK 47 AUDIO
    TITLE "0:"
    INDEX 01 01:18:53
  TRACK 48 AUDIO
    TITLE "3:cjc039_4784"
    INDEX 01 01:19:34
  TRACK 49 AUDIO
    TITLE "0:"
    INDEX 01 01:23:11
  TRACK 50 AUDIO
    TITLE "2:cjc039_4785"
    INDEX 01 01:24:67
  TRACK 51 AUDIO
    TITLE "0:"
    INDEX 01 01:25:72
  TRACK 52 AUDIO
    TITLE "3:cjc039_4786"
    INDEX 01 01:26:50
  TRACK 53 AUDIO
    TITLE "0:"
    INDEX 01 01:29:56
  TRACK 54 AUDIO
    TITLE "2:cjc039_4787"
    INDEX 01 01:31:34
  TRACK 55 AUDIO
    TITLE "0:"
    INDEX 01 01:32:53
  TRACK 56 AUDIO
    TITLE "3:cjc039_4788"
    INDEX 01 01:33:36
  TRACK 57 AUDIO
    TITLE "0:"
    INDEX 01 01:36:68
  TRACK 58 AUDIO
    TITLE "2:cjc039_4789"
    INDEX 01 01:38:45
  TRACK 59 AUDIO
    TITLE "0:"
    INDEX 01 01:39:63
  TRACK 60 AUDIO
    TITLE "3:cjc039_4790"
    INDEX 01 01:40:44
  TRACK 61 AUDIO
    TITLE "0:"
    INDEX 01 01:43:11
  TRACK 62 AUDIO
    TITLE "2:cjc039_4791"
    INDEX 01 01:44:62
  TRACK 63 AUDIO
    TITLE "0:"
    INDEX 01 01:45:73
  TRACK 64 AUDIO
    TITLE "3:cjc039_4792"
    INDEX 01 01:46:55
  TRACK 65 AUDIO
    TITLE "0:"
    INDEX 01 01:50:02
  TRACK 66 AUDIO
    TITLE "2:cjc039_4793"
    INDEX 01 01:51:56
  TRACK 67 AUDIO
    TITLE "0:"
    INDEX 01 01:52:59
  TRACK 68 AUDIO
    TITLE "3:cjc039_4794"
    INDEX 01 01:53:41
  TRACK 69 AUDIO
    TITLE "0:"
    INDEX 01 01:57:33
  TRACK 70 AUDIO
    TITLE "2:cjc039_4795"
    INDEX 01 01:59:08
  TRACK 71 AUDIO
    TITLE "0:"
    INDEX 01 02:00:45
  TRACK 72 AUDIO
    TITLE "3:cjc039_4796"
    INDEX 01 02:01:23
  TRACK 73 AUDIO
    TITLE "0:"
    INDEX 01 02:05:21
  TRACK 74 AUDIO
    TITLE "2:cjc039_4797"
    INDEX 01 02:06:69
  TRACK 75 AUDIO
    TITLE "0:"
    INDEX 01 02:07:65
  TRACK 76 AUDIO
    TITLE "3:cjc039_4798"
    INDEX 01 02:08:41
  TRACK 77 AUDIO
    TITLE "0:"
    INDEX 01 02:11:27
  TRACK 78 AUDIO
    TITLE "2:cjc039_4799"
    INDEX 01 02:13:03
  TRACK 79 AUDIO
    TITLE "0:"
    INDEX 01 02:14:24
  TRACK 80 AUDIO
    TITLE "3:cjc039_4800"
    INDEX 01 02:14:71
  TRACK 81 AUDIO
    TITLE "0:"
    INDEX 01 02:19:33
